<?xml version="1.0" encoding="utf-8"?>
<!-- Generator: Adobe Illustrator 25.1.0, SVG Export Plug-In . SVG Version: 6.00 Build 0)  -->
<svg version="1.1" id="logo" xmlns="http://www.w3.org/2000/svg" xmlns:xlink="http://www.w3.org/1999/xlink" x="0px" y="0px"
	 viewBox="0 0 201.7 71.8" style="enable-background:new 0 0 201.7 71.8;" xml:space="preserve">
<style type="text/css">
	.st0{fill:#FFFFFF;}
	.st1{fill:#E30613;}
</style>
<g>
	<g>
		<path class="st0" d="M52.9,31.9C53,31.9,53,31.9,52.9,31.9c-0.1,0.1-0.1,0.1-0.1,0.2l-0.1,0.1c-0.2,0.1,0.1,0,0,0.1
			c-0.5,0.1,0.2,0-0.1,0.2c0,0,0.5-0.1,0.4,0c0.1,0,1.5-0.4,1.4-0.2c0.5-0.1,0.1,0,0.5-0.1c-0.1,0.1,0.1,0.1,0.2,0.1l-0.1,0
			c0.2,0-0.1,0.1,0.1,0.1c0,0,0.2,0,0.3,0c0,0.1,0.1,0.1,0.1,0.2c0.1,0,0.1,0.1,0.2,0.1c-0.1,0.1,0.2,0.1,0.1,0.1c0.1,0,0,0.1,0,0.2
			c-0.2,0.1,0,0.1-0.2,0.3c-0.1,0,0.2,0,0.1,0.1c0,0-0.1,0.1,0,0.1c0,0-0.2,0.1-0.2,0.1c0,0,0.1,0.2-0.1,0.3c0,0,0,0.2-0.2,0.2
			c-0.1,0,0.7,0,0.7,0.1c0.1,0-0.1,0.2,0.1,0.1c0,0.1,0.1,0-0.1,0.1c0.2,0-0.5,0.3-0.3,0.3c0,0-0.3,0.1-0.2,0.1c0,0,0,0.1,0,0.1
			c-0.1,0-0.3,0.1-0.1,0.1c0,0.1,0,0.1,0,0.1c0.1,0-0.3,0.1-0.3,0.2c0.1,0,0.1,0.1,0.1,0.2c-0.1,0.2-0.2,0.1-0.3,0.2
			c-0.1,0.1,0.1,0,0,0.1c-0.5,0.1,0.1,0.1-0.3,0.2c-0.3,0.1-0.4,0.3-0.7,0.3c-0.1,0.1-0.1,0.1-0.2,0.2c0.3-0.1,0,0.1,0.3,0
			c0.3,0,0,0.1,0.2,0.1l0,0c0.1,0-0.6,0.2-0.5,0.2c0,0,0.1,0,0,0c-0.1,0.1-0.4,0.1-0.5,0.2c0.2-0.1-0.1,0.1,0,0.1
			c0.1,0,0.1,0,0.1,0.1l0,0l0.1,0l-0.1,0.1c0,0,0.2,0,0.1,0c-0.2,0-0.1,0.1-0.2,0.1c0,0,0.2-0.1,0.2,0l0.1-0.1c0,0,0,0,0,0
			c-0.2,0.1-0.1,0.1-0.2,0.2c-0.2,0.1-1.9,0.2-2.1,0.3C50.8,38,50.7,38,50.4,38c-0.1,0-0.2,0-0.3,0c-0.3,0.1-0.3,0-0.6,0
			c-0.1-0.1-0.4,0.1-0.5,0.1c-0.3,0-0.5,0-0.8,0.1c-0.3,0-0.7,0.2-0.9,0.1c-0.1,0-0.2,0-0.3,0.1c-0.2,0-0.4,0-0.8,0.1
			c-0.4,0.1-0.5,0-0.9,0.1c-0.3,0-0.7,0.1-1,0.2c-0.3,0.1-0.5,0.1-0.7,0.1c-0.4,0.1-0.6,0.1-1,0.2c-0.5,0.1-1,0.1-1.6,0.3
			c0,0,0-0.1-0.1,0c-0.2,0.1-0.2,0-0.4,0.1c-0.2,0-0.6,0.1-0.8,0.1c-0.4,0.1-0.6,0-1.1,0.2c-0.2,0-0.4,0.1-0.6,0.1l-0.2,0l0,0
			c-0.5,0.1-1,0.2-1.6,0.3c-0.6,0-1.3,0.2-1.9,0.3c-0.4,0.1-0.8,0.2-1.3,0.3c-0.2,0-0.6,0.1-0.8,0.1c-0.2,0.1-0.3,0-0.5,0.1
			c-0.2,0-0.4,0.1-0.6,0.1c-0.2,0.1-0.5,0.1-0.7,0.1c-0.3,0-0.6,0.1-0.7,0.1c-0.4,0.1-0.5,0-0.9,0.1c-0.3,0-0.7,0.1-1.1,0.2
			c-0.4,0-1,0.2-1.3,0.2c-0.4,0.1-1.6,0.1-1.9,0.2c-0.2,0-1.2,0.1-1.6,0.2c-0.4,0.2-0.4,0.1-0.7,0.2c-0.2,0-0.5,0.1-0.5,0.1
			c-0.1,0-0.3,0.1-0.3,0c-0.2,0,0.3,0,0.3-0.1c-0.2,0.1-0.1-0.1-0.2-0.1c-0.2,0,0.1-0.1,0-0.1l0.1-0.1c-0.1,0,0.4,0,0.2,0.1
			c-0.1,0,0.3-0.1,0.2-0.1l-0.6,0.1c0.1,0,0.2-0.2,0.3-0.2c0.1,0,0.1-0.1,0.1-0.2c0.1-0.1,0.3-0.1,0.3-0.1c0,0,0,0,0-0.1
			c0,0-0.1,0-0.1,0s0,0,0,0c-0.1,0-0.2,0-0.2,0c0.1-0.1,0.5-0.2,0.2-0.2c0,0,0.4-0.1,0.2-0.1l0.3-0.3c-0.4,0,0.3-0.3,0-0.3
			c0,0,0.2-0.1,0.3-0.1c0.1,0,0.1-0.1,0.1-0.1c0.2,0,0.4-0.1,0.4-0.1l-0.2-0.1c0.1,0,0.2-0.1,0.3-0.1c0,0,0,0-0.1,0
			c-0.1,0-0.3,0-0.4,0.1c0,0-0.2,0-0.4,0c-0.2,0-0.1,0-0.3,0c-0.2,0-0.3,0-0.3,0c0-0.1,0,0,0-0.1C22,40.1,22.3,40,22,40
			c-0.2,0,0.3-0.1,0-0.1c0,0-0.2-0.1-0.2-0.1c0-0.1-0.2,0-0.2-0.1c0.1-0.1,0.1-0.2,0.2-0.2c-0.3,0.1,0.1-0.3-0.1-0.2
			c0,0,0.5-0.2,0.5-0.2c-0.3,0.1,0.2-0.1-0.1-0.1c-0.1,0,0.1-0.1,0-0.1c0.1-0.1-0.1,0,0-0.1c0-0.1,0-0.1,0.1-0.2l-0.2,0l-0.1,0
			c0.2-0.1,0-0.1-0.1-0.1l0.2-0.1c-0.1,0-0.5,0-0.4-0.1c-0.2,0-0.2,0,0-0.2c-0.1,0,0-0.2-0.2-0.2c0,0,0.3-0.2,0.1-0.2c0,0,0,0,0.1,0
			c0,0,0,0,0,0c0.1,0,0.2,0,0.2,0c0,0,0.1,0,0.1,0s0.1,0,0.2,0c0,0,0.1-0.1,0.1-0.1l-0.1,0l-0.3-0.1c0,0,0.4-0.1,0.1-0.1l-0.1,0
			l0.1-0.1c0-0.1-0.3,0-0.4-0.1c0.1-0.1-0.1,0-0.1-0.1l0,0c0.1-0.1,0-0.1,0-0.1c0.2-0.1-0.4-0.2-0.2-0.2c-0.1,0-0.1-0.2-0.1-0.2
			c0.1,0,0.1-0.1,0.1-0.1c0.1-0.1,0.1,0,0.1-0.1c0.1-0.1,0.1-0.1,0.3-0.2c-0.3,0,0.2-0.2,0.1-0.3l-0.1-0.2l0.6-0.2
			c0.1-0.2,0.4-0.1,0.1-0.3l0.2,0l-0.1-0.1c0.1-0.1,0.1-0.1,0.1-0.2c0,0,0.2-0.1,0.2,0c0,0,0.1,0,0.1,0c0,0,0.1,0,0.1,0
			c0,0,0-0.1,0-0.1c0,0,0.1,0,0.1,0c0,0,0.1,0,0.1,0c-0.1,0-0.1-0.1,0-0.1c0.1-0.1-0.2-0.1,0-0.1c0.1,0.1-0.1-0.1,0.8-0.4
			c0.3-0.1,0.4,0,0.6-0.2c0.4-0.1,0.4,0.1,0.7,0c0,0,0.1,0,0,0l-0.1,0c0.2,0,1.5-0.4,1.5-0.3c0.1,0,0.1,0,0.2,0
			c0.5-0.1,0.9-0.1,1.3-0.2c0.1,0,0.3-0.1,0.3,0c0.3,0,0.5-0.1,0.8-0.1c0,0.1,0.7-0.2,0.6,0c0.1,0,0.3,0,0.4-0.1l0,0
			c0.3-0.1,0.5,0,0.8-0.1c0.1-0.1,0.2-0.1,0.2-0.1c0.4-0.2,0.7-0.2,1.1-0.2c0.6-0.1,1.3-0.3,1.7-0.2c0.2-0.1,0.3-0.1,0.4-0.1
			c0.4-0.1,0.8-0.2,1.1-0.2c0,0,0.1,0,0.2,0c0,0,0.1,0,0.1,0c0.1,0,0.2-0.1,0.3-0.1c0.4-0.1,0.4,0.2,0.8,0c0.2,0.1,0.9,0.1,1.4,0
			c0.1,0,0.2,0,0.3,0c0.3-0.1,0.5,0,0.7-0.2c0,0,0,0,0.1-0.1c0,0,0.2,0,0.2,0.1c0.2,0,0.6-0.1,0.6-0.1c0.6-0.2,1.2-0.2,1.8-0.3
			c0.1,0,0.2-0.1,0.3-0.1c0.5-0.1,0.8-0.1,1.3-0.3c0.2,0,0.4-0.2,0.6-0.1c0.5-0.2,1.1-0.3,1.6-0.4l0,0c0.1,0,0.2,0,0.3-0.1
			c0,0,0,0,0,0c0.3-0.1,0.6-0.1,0.9-0.3c0.4-0.2,1-0.5,1.6-0.6c0,0,0.1,0,0.2,0c0,0.1,0.4-0.1,0.3,0.1l-0.1,0.1
			c0.1,0.1,0.3,0,0.3,0.1c0.1,0,0.3,0,0.2,0.1c0.2,0,0.5-0.1,0.7-0.1c0.1-0.1,0.6,0,0.7-0.1c0.3,0,0,0.1,0.2,0.1
			c0.3-0.1,0.1,0.1,0.3,0.1c0.1,0,0.1-0.1,0.2-0.1c0,0,0,0,0.1,0c0,0,0.2,0,0.1,0c0,0.1,0.2-0.1,0.2,0c0.2,0-0.1,0.1,0.2,0
			c0.2,0.1,0.2,0,0.3-0.1c0,0,0.1,0,0.1,0c0,0,0.1,0,0.1,0c0,0,0,0,0.1,0c0,0,0.1,0,0.1,0c0.1,0,0,0.1,0,0.1c0,0,0.1,0,0.2,0
			c0,0,0,0,0,0c0,0,0.1,0,0.1,0c0,0,0,0.1,0.1,0c0,0-0.1,0.1,0.1,0c0,0,0,0.1,0,0.1c0,0,0.2,0.1,0.1,0.1c0,0-0.1,0.1-0.1,0.1
			c0,0-0.1,0-0.1,0.1c0,0,0.1,0.1,0,0.1c-0.1,0-0.1,0.1-0.1,0.1l-0.1,0.1l0.1,0l-0.2,0.1l0.1,0l0.1,0c-0.1,0-0.4,0.2-0.1,0.2l0,0
			c0,0-0.1,0.2-0.1,0.2c-0.1,0-0.2,0.2-0.2,0.2c0.2,0-0.3,0.3,0,0.3l-0.1,0c0.1,0,0.1,0.1,0.1,0.1C52.9,31.8,53,31.8,52.9,31.9"/>
		<path class="st1" d="M56.5,39.2L56.5,39.2c-0.1,0.1,0,0.1-0.1,0.2c-0.2,0.2-0.5,0.1-0.9,0.2c-0.2,0-0.3,0.1-0.6,0.1
			c0,0.1-0.4,0.1-0.5,0.2c-0.2,0-0.4,0.1-0.6,0.2c-0.3,0.2-0.7,0.1-0.9,0.3l0.1,0l-0.2,0.1c0.1,0,0.1,0.1,0.2,0.1
			c-0.1,0-0.1,0.1-0.2,0.1c0.2,0,0.2,0,0.2,0.1c-0.1,0.1-0.5,0.2-0.8,0.3c-0.1,0-0.1,0.1-0.1,0.1c-0.2,0-0.2,0.1-0.4,0.1
			c-0.3,0.1-0.8,0.1-0.9,0.3c0,0,0,0.1,0.1,0l0,0c0.2,0-0.2,0.1,0,0.1c0.1,0,0.4,0,0.1,0.1c0,0,0.1,0,0,0.1c0.2-0.1,0.2,0,0.2,0
			c0,0.1,0,0.1,0,0.2c-0.1,0.1-0.2,0-0.2,0.1l0.1,0l0,0c0.3,0,0.3,0.1,0.6,0c-0.2,0.1,0.1,0,0.2,0.1c0,0.1,0.2,0,0.1,0.1
			c0.2,0,0.1,0.1,0.2,0.1c0.3,0-0.1,0.1,0,0.1c0,0,0,0.1,0.1,0.1l0.1,0l0,0l0.1,0c-0.1,0-0.1,0.1-0.1,0.1c0,0,0,0,0,0
			c0,0,0.2,0,0.1,0.1c0.2,0,0,0.1,0.1,0.1l-0.1,0.1l0.3,0c-0.4,0.1,0,0.1-0.2,0.2c-0.1,0-0.1,0-0.1,0.1c0,0,0.1,0,0,0l0,0
			c0.1,0,0,0.1,0.2,0c-0.3,0.1,0.3,0.1-0.1,0.2c-0.1,0,0,0,0,0.1c0.1,0,0.1,0,0,0l0,0c0,0.1-0.1,0.2,0.1,0.2c0.1,0,0.1,0,0,0.1
			c-0.2,0.1,0.2,0,0,0.1c0,0,0.2,0,0.2,0c-0.1,0.1-0.1,0.1-0.1,0.2c0.4,0-0.3,0.2,0.1,0.2c0,0-0.2,0.1-0.2,0.1c0.1,0,0.3-0.1,0.2,0
			c-0.1,0-0.2,0.1-0.3,0.1c0.2,0-0.1,0.1,0,0.1c-0.3,0.1-0.2,0.2-0.5,0.2c-0.3,0.1-0.6,0.1-0.8,0.2c-0.1,0-0.2,0-0.2,0
			c-0.3,0.1-0.6,0.2-0.9,0.3c-0.3,0-0.8,0.2-1.1,0.3c-0.2,0-0.2,0.1-0.4,0.1c-0.3,0.1-0.5,0.1-0.8,0.2l-0.5,0v0
			c-0.1,0-0.2,0-0.2-0.1c-0.2,0-0.3,0-0.4,0l0,0c-0.3,0-0.6-0.1-1-0.1c0,0-0.1,0-0.1-0.1c-0.5,0.2-0.4-0.1-0.8,0c-0.1,0-0.2,0-0.3,0
			c-0.1,0-0.4,0.1-0.5,0c-0.5,0.1-0.7,0-1.4,0.1c-0.1,0-0.4,0-0.5,0c-0.4,0.1-0.7,0.1-1.1,0.2c0,0,0,0-0.1,0
			c-0.4,0.1-0.6,0.1-1.1,0.2c-0.3,0-0.9,0.1-1.3,0.2c-0.2,0-0.8,0.2-1,0.1c-1,0.2-1.7,0.2-2.7,0.4c-0.8,0.2-1.6,0.3-2.4,0.4
			c-0.3,0.1-0.7,0.2-1,0.2c-0.2,0.1-0.3,0-0.5,0.1c-0.3,0.1-0.6,0.2-0.9,0.2c-0.1,0-0.1,0-0.2,0.1c-0.1,0-0.3,0.1-0.4,0
			c-0.3,0.1-0.7,0.2-0.9,0.2c-0.3,0.1-0.7,0.2-1,0.3c-0.4,0-0.9,0.3-1.2,0.2c-0.1,0-0.6,0-0.5-0.1c-0.3,0,0-0.1-0.1-0.1
			c-0.3,0-0.4-0.1-0.8-0.1c0-0.1-0.2-0.1-0.2-0.1c-0.2,0-0.2-0.1-0.3-0.1c0.2-0.2-0.3,0-0.3-0.1l0.1,0c-0.1,0-0.4,0-0.6,0
			c0,0,0,0,0,0c-0.1,0-0.4,0-0.4-0.1c-0.2,0-0.2-0.1-0.4-0.1c0,0-0.1-0.1-0.3-0.1c-0.1-0.1-0.1-0.2-0.4-0.2c-0.2,0-0.3-0.2-0.4-0.3
			l0,0c0.1-0.1,0.1-0.1,0.2-0.2l-0.2,0l0,0l-0.1,0c0,0,0.1,0,0-0.1c-0.1,0-0.1,0-0.1,0c0.1-0.1-0.1,0,0.1-0.1
			c-0.2,0,0.2-0.1,0.1-0.1c-0.2,0-0.1,0-0.1-0.1c0.3-0.1,0.1-0.2,0.2-0.2c0.1-0.1-0.2,0-0.3-0.1l0.3-0.2c0-0.1-0.2-0.1-0.4-0.2l0,0
			c-0.1,0,0-0.1-0.1-0.1l0.1,0c-0.1,0-0.2,0-0.1-0.1c0.1-0.1,0.3-0.1,0.3-0.2c0.2-0.1,0-0.1,0.1-0.1c-0.1,0,0.2-0.2,0-0.1l0.1-0.1
			l-0.1,0c0.2-0.1-0.2,0,0-0.1c-0.2,0,0.2-0.1-0.1-0.1c0.1-0.1-0.2,0,0-0.1c-0.4,0,0.2-0.2-0.1-0.2c0.1-0.1-0.2,0-0.2,0l0,0
			c0.1,0,0.1-0.1,0.1-0.1c0,0,0-0.1-0.1,0l0-0.1c0.1,0,0.1,0,0.1-0.1c0,0-0.1,0-0.1,0c0.2-0.1,0-0.1,0.2-0.2
			c-0.2-0.1,0.5-0.2,0.3-0.3c0.1-0.1,0.1-0.2,0-0.2l0,0c0.2-0.2-0.5-0.1-0.4-0.3c-0.2,0,0.2-0.1-0.1-0.1L22.1,44l0.8-0.4
			c0-0.1-0.4,0-0.5,0c-0.5,0.1-1,0.3-1.2,0.1c-0.2,0-0.2,0-0.3,0l0-0.1c0,0,0,0,0,0c0.1-0.1,0.3-0.1,0.2-0.2l-0.1,0
			c0.2-0.1,0.1-0.2,0.3-0.3l-0.1,0c0.2-0.1,0-0.1,0-0.2c0.2-0.1,0.2-0.2,0.4-0.3l-0.1,0l0.1,0l-0.1,0c0,0,0.1,0,0.1-0.1
			c-0.2,0,0-0.1-0.3,0l0.1-0.1c0,0,0,0,0,0l0.1,0c-0.1,0-0.2,0-0.1,0c-0.4,0.1-0.1-0.1-0.4-0.1c0-0.1-0.2-0.1,0-0.2
			c-0.1,0,0.2-0.1,0.2-0.2c0.2-0.1,0.5-0.2,0.8-0.2c0.4,0,0.9-0.1,1.3,0c0.1,0,0.3-0.1,0.2,0c0.3,0,0.7,0,1.1-0.1c0.1,0,0.1,0,0.3,0
			c1.2-0.1,2.2-0.1,3.6-0.4c0.4,0,0.9-0.2,1.2-0.1c0.7-0.1,1.1-0.1,1.8-0.2c0.2,0,0.5-0.1,0.7-0.1c0,0,0.3-0.1,0.4,0
			c0.7-0.1,1.3-0.1,2-0.3c1.1-0.1,2.2-0.3,3.4-0.5c0.1,0,0.3-0.1,0.4-0.1c0.2-0.1,0.5-0.1,0.6-0.1c0.3-0.1,0.7-0.2,1-0.2
			c0.1-0.1,0.2,0,0.4-0.1c0.3,0,0.6-0.2,0.8-0.1c0.2-0.1,0.3,0,0.5-0.1c0.3,0,0.7-0.1,1.1-0.2c0.1,0,0.2,0,0.3,0
			c0.5,0,1.1-0.2,1.6-0.3c0.2,0,0.4-0.1,0.7-0.1l0.2-0.1c0.1,0,0.3,0,0.4,0l0.5-0.1c0.2-0.1,0.5-0.1,0.7-0.2c0.1,0,0.2,0,0.3,0
			c0.2,0,0.4-0.1,0.5-0.1c0.3-0.1,0.5,0,0.9-0.2c0.1,0,0.2,0,0.3,0c0.1,0,0.1-0.1,0.2-0.1c0,0,0.3,0,0.4-0.1c0.2-0.1,0.4,0,0.6-0.1
			c0.4-0.1,0.3,0,0.7-0.1c0.1-0.1,0.3-0.1,0.4-0.1c0.1,0,0.3-0.1,0.4-0.1c0.2,0,0.6-0.2,0.7-0.1c0.3-0.1,0.3,0,0.4,0.1
			c0.1,0,0.2,0,0.4,0c0.1,0,0.1,0.1,0.2,0.1c-0.1,0.1,0.1,0,0.1,0.1l0.1,0c-0.1,0,0,0.1,0,0.1l0,0c-0.1,0.1,0.2,0,0.2,0L54,37.5
			c0.2,0,0.1,0.1,0.3,0.1l-0.1,0c0,0,0.1,0,0.1,0l0,0c-0.1,0.1,0.4-0.1,0.3,0.1l0.1,0c-0.2,0.1,0.1,0,0.1,0.1c0.2,0,0.2,0.1,0.4,0.1
			c-0.2,0.1,0.3,0.1,0.2,0.2c0,0,0.2,0,0,0.1l0.3,0l-0.1,0c0,0,0.1,0,0.1,0l0.1,0c0,0.1,0.1,0.1,0.2,0.1l0.1,0
			c0.1,0-0.2,0.1,0.1,0.1c-0.2,0.1,0.1,0,0,0.1l0,0l0,0l0,0c0.3,0-0.3,0.2,0.1,0.1c0.1,0.1,0,0.2,0.1,0.2c-0.1,0.1,0.3,0,0.1,0.1
			c0,0-0.2,0.1,0,0.1c-0.4,0.1,0,0.1-0.2,0.2C56.4,39.1,56.4,39.2,56.5,39.2C56.4,39.2,56.5,39.2,56.5,39.2"/>
		<path class="st1" d="M55.3,23.9c0.1,0-0.2,0.1-0.3,0.2c-0.3,0-0.5,0.1-0.8,0.2c-0.1,0-0.3,0-0.3,0.1l0,0.1
			c-0.2,0.1-0.4,0.1-0.6,0.2c-0.5,0.1-0.8,0.3-1.1,0.5c0,0,0.1,0,0.1,0.1c0.1,0,0.4,0,0.2,0.1c0.5-0.1,0,0.2,0.4,0.1
			c-0.1,0.1,0.3,0.1,0.4,0.1l-0.1,0c0.2,0,0,0.1,0.3,0.1c0,0,0.1,0,0.1,0c0,0.1,0.1,0.1,0.1,0.2c0.1,0,0.2,0.1,0.3,0.1
			c-0.1,0.1,0.2,0,0.1,0.1c0.1,0,0,0.1-0.1,0.2c-0.2,0.1-0.5,0.2-0.8,0.3c-0.1,0-0.2,0.1-0.3,0.1c0,0-0.2,0.1-0.1,0.2
			c0,0-0.1,0-0.1,0c0,0.1,0,0.1-0.1,0.2c-0.1,0,0,0.1,0,0.1c0.1,0,0.1,0,0.2,0c0,0.1,0.1,0-0.1,0.1c0.2,0-0.1,0.1,0.1,0.1
			c0,0,0,0.1,0.1,0.1c0,0.1,0,0.1,0.2,0.1c0,0.1,0.1,0.1,0.1,0.1c0.2,0,0.4,0,0.4,0c0.1,0,0.4,0,0.5,0.1c-0.1,0.2-0.5,0.3-0.8,0.5
			c-0.1,0-0.4,0.1-0.5,0.1c-0.5,0.1-0.8,0.2-1.2,0.3c-0.3,0.1-0.5,0.3-0.9,0.3c-0.1,0.1-0.1,0.1-0.2,0.2c0.3-0.1,0.2,0.1,0.5,0
			c0.3,0,0,0.1,0.2,0.1l0,0c0.1,0,0,0.1,0.1,0.1c0,0,0.1,0,0,0c-0.2,0.1,0,0-0.1,0.1c0.2-0.1,0,0.1,0.2,0.1c0.1,0,0.1,0,0.1,0.1l0,0
			l0.1,0L51.3,30c0,0,0.2,0,0.1,0c-0.2,0-0.1,0.1-0.2,0.1c0,0,0.2-0.1,0.2,0l0,0c0,0,0,0,0,0c-0.2,0.1-0.1,0.1-0.2,0.2
			c-0.2,0.1-0.6,0.2-0.8,0.3c-0.3,0.1-0.4,0.1-0.7,0.1c-0.1,0-0.2,0-0.3,0c-0.3,0.1-0.3,0-0.6,0c-0.1-0.1-0.4,0.1-0.5,0.1
			c-0.3,0-0.5,0-0.8,0.1c-0.3,0-0.7,0.1-0.9,0.1c-0.1,0-0.2,0-0.3,0.1c-0.2,0-0.4,0-0.8,0.1c-0.4,0.1-0.5,0-0.9,0.1
			c-0.3,0-0.7,0.1-1,0.2c-0.3,0-0.5,0.1-0.7,0.1c-0.4,0.1-0.6,0.1-1,0.2c-0.5,0-1,0.1-1.6,0.3c0,0,0-0.1-0.1,0
			c-0.2,0.1-0.2,0-0.4,0.1c-0.2,0-0.6,0.1-0.8,0.1c-0.4,0.1-0.6,0-1.1,0.2c-0.2,0-0.4,0.1-0.6,0.1l-0.2,0l0,0
			c-0.5,0.1-1,0.2-1.6,0.3c-0.6,0-1.3,0.2-1.9,0.2c-0.4,0.1-0.8,0.2-1.3,0.3c-0.2,0-0.6,0.1-0.8,0.1c-0.2,0.1-0.3,0-0.5,0.1
			c-0.2,0-0.4,0.1-0.6,0.1c-0.2,0.1-0.5,0.1-0.7,0.1c-0.3,0-0.6,0.1-0.7,0.1c-0.4,0.1-0.5,0-0.9,0.1c-0.3,0-0.7,0.1-1.1,0.2
			c-0.4,0-1,0.2-1.3,0.1c-0.4,0.1-0.7,0.1-1.1,0.2c-0.2,0-0.3-0.1-0.6,0c-0.4,0.2-0.6,0.1-1,0.2c-0.2,0-0.5,0.1-0.5,0
			c-0.1,0-0.3,0.1-0.3,0c-0.2,0-0.6,0.2-0.7,0c-0.2,0.1-0.1-0.1-0.2-0.1c-0.2,0,0.1-0.1,0-0.1l0.1-0.1c-0.1,0,0-0.1-0.1,0
			c-0.1,0,0.1,0,0-0.1l-0.1,0c0.1,0,0,0,0,0c0-0.1,0.2-0.2,0.2-0.2c0.1-0.1,0.3-0.1,0.3-0.2c0-0.1-0.3,0-0.1-0.2
			c-0.2,0,0.3-0.2,0.1-0.2c0.1-0.1,0.2-0.2-0.1-0.3c0,0,0.1-0.1,0-0.1l0.1-0.1c-0.4,0-0.1-0.2-0.4-0.3c0,0-0.1-0.1,0.1-0.2l-0.2,0
			c0.1,0,0.2-0.1,0.1-0.1c0.2-0.1,0.6-0.2,0.6-0.2c0-0.1,0.4-0.1,0.3-0.2c-0.3,0.1-0.3,0-0.5,0c-0.4,0.1-0.7,0.1-1.2,0.2
			c-0.3,0-0.4-0.1-0.5-0.2c0.1-0.1,0.1-0.1,0.1-0.2c-0.3,0.1-0.1-0.1-0.3-0.1c0,0,0.1-0.1,0.1-0.1c-0.4,0.1,0.1-0.2-0.2-0.2
			c-0.1,0,0.1-0.1,0-0.1c0.1-0.1-0.1-0.1,0-0.2c0-0.1-0.1-0.1-0.1-0.2l0.2-0.1l-0.1,0c0.2-0.1,0-0.1,0-0.1l0.2-0.1
			c-0.1,0-0.1,0,0-0.1c-0.2,0-0.4,0-0.2-0.1c-0.1,0,0.1-0.2-0.2-0.1c-0.2,0,0.3-0.2,0-0.2c0.1-0.1,0.1-0.1,0-0.1c0,0,0,0,0,0l0,0
			l-0.1,0l0.1-0.1l-0.1,0l0.1-0.1c-0.2,0,0-0.1-0.2-0.1l0,0l-0.1,0c0-0.1,0.1-0.1,0-0.2c0.1-0.1,0-0.1,0.2-0.1l-0.1,0
			c0.1-0.1,0-0.1,0-0.1c0.2-0.1,0.3-0.2,0.6-0.3c-0.1-0.1,0.3-0.1,0.3-0.2c0.1,0,0.2-0.1,0.1-0.1c-0.1,0-0.2,0-0.2,0
			c0.1-0.1-0.2-0.1-0.1-0.2c-0.3,0,0-0.2,0-0.3l0.2-0.1l0,0c0.1-0.2,1.1-0.4,0.8-0.5l0,0l0,0c0.1-0.1-0.1,0-0.1-0.1
			c-0.1,0-0.1-0.1-0.3,0c0,0-0.1,0-0.1,0c0.1-0.1-0.1-0.1-0.2-0.1c0,0,0-0.1-0.2,0c0,0,0,0,0,0c0,0,0,0,0.1,0
			c-0.1,0-0.1-0.1-0.1-0.1c0.2-0.1,0.4-0.2,0.6-0.3c0.1,0.1,0.4-0.2,0.6-0.2c0,0,0.1-0.1,0.2-0.1c0.1,0,0.1,0.1,0.2,0.1
			c0.3-0.1,0.1,0.1,0.4,0c0.2,0,0.2,0.1,0.5,0c0.2-0.1,0.4-0.1,0.6-0.1c0.3-0.1,0.4,0,0.6-0.1c0.4-0.1,0.3,0.1,0.7,0c0,0,0.1,0,0,0
			l0,0c0.2,0,0.6-0.1,0.7,0c0.1,0,0.1,0,0.2,0c0.5-0.1,0.9-0.1,1.3-0.2c0.1,0,0.3-0.1,0.3,0c0.3,0,0.5-0.1,0.8-0.1
			c0,0.1,0.7-0.2,0.6,0c0.1,0,0.3,0,0.4-0.1l0,0c0.3-0.1,0.5,0,0.8-0.1c0.1-0.1,0.2-0.1,0.2-0.1c0.4-0.1,0.7-0.2,1.1-0.2
			c0.6-0.1,1.3-0.3,1.7-0.2c0.2-0.1,0.3-0.1,0.4-0.1c0.4-0.1,0.8-0.2,1.1-0.2c0,0,0.1,0,0.2,0c0,0,0.1,0,0.1,0
			c0.1,0,0.2-0.1,0.3-0.1c0.4-0.1,0.4,0.2,0.8,0c0.2,0.1,0.9-0.1,1.4-0.2c0.1,0,0.2,0,0.3,0c0.3-0.1,0.5,0,0.7-0.1
			c0,0,0-0.1,0.1-0.1c0,0,0.2,0,0.2,0.1c0.2,0,0.6-0.1,0.6-0.1c0.6-0.2,1.2-0.1,1.8-0.3c0.1,0,0.2-0.1,0.3-0.1
			c0.5-0.1,0.8-0.1,1.3-0.3c0.2,0,0.4-0.1,0.6-0.1c0.5-0.2,1.1-0.2,1.7-0.4l0,0c0.1,0,0.2,0,0.3-0.1c0,0,0,0,0,0
			c0.3-0.1,0.6-0.1,0.9-0.2c0.4-0.2,1-0.5,1.6-0.5c0,0,0.1,0,0.2,0c0,0.1,0.4-0.1,0.3,0.1l-0.1,0.1c0.1,0.1,0.3,0,0.3,0.1
			c0.1,0,0.2,0,0.2,0.1c0.2,0,0.5-0.1,0.7-0.1c0.1-0.1,0.3,0,0.4-0.1c0.3,0,0.5-0.1,0.6-0.1c0.3-0.1,0,0.1,0.3,0
			c0.1,0,0.3,0.1,0.5,0.1c-0.1,0,0.1,0,0.2,0c0,0,0.1,0.1,0.1,0.1c0.3,0,0,0.2,0.3,0.1c-0.2,0.1,0.2,0,0,0.1
			c0.2,0.1,0.5,0.1,0.9,0.1c-0.1,0.1,0.1,0,0,0.1c0.1,0,0.4-0.1,0.3,0.1c0.3-0.1,0.6,0,0.7,0l-0.1,0l0.2,0l-0.1,0.1l0.1,0l-0.1,0
			c0.3-0.1,0,0.1,0.2,0.1l0,0c0.1,0,0,0.1,0.1,0c0.1,0,0.2,0,0.1,0.1c0.3-0.1,0.2,0.1,0.6,0l-0.1,0c0.1,0,0.2,0,0.2,0
			C55.2,23.8,55.4,23.8,55.3,23.9"/>
	</g>
	<path d="M69,35.9c0-5.4,3.5-9.1,8.5-9.1c5,0,8.5,3.7,8.5,9.1c0,4.9-3,9.2-8.5,9.2C72,45.1,69,40.8,69,35.9z M83.5,35.9
		c0-3.8-2.1-7-6-7c-3.9,0-6,3.2-6,7c0,3.8,2.1,7,6,7C81.4,42.9,83.5,39.7,83.5,35.9z M76.1,25.3h-1.6c-0.3,0-0.4-0.1-0.4-0.4v-1.9
		c0-0.3,0.1-0.4,0.4-0.4h1.6c0.3,0,0.4,0.1,0.4,0.4v1.9C76.5,25.2,76.4,25.3,76.1,25.3z M80.5,25.3h-1.6c-0.3,0-0.4-0.1-0.4-0.4
		v-1.9c0-0.3,0.1-0.4,0.4-0.4h1.6c0.3,0,0.4,0.1,0.4,0.4v1.9C80.9,25.2,80.8,25.3,80.5,25.3z"/>
	<path d="M94.4,41.5c0-0.5-0.2-0.9-1.1-1.4c-0.7-0.4-1.6-0.7-2.4-1.1c-1.5-0.8-2.2-1.8-2.2-3.1c0-1.7,1.6-3.2,3.9-3.2
		c2.2,0,3.4,1.1,3.8,2.7c0.1,0.2,0.1,0.4-0.1,0.4l-1.5,0.5c-0.2,0.1-0.4-0.1-0.4-0.2c-0.3-1.1-0.9-1.6-1.9-1.6
		c-0.9,0-1.8,0.5-1.8,1.3c0,0.7,0.5,1,1.5,1.5c0.5,0.2,1.1,0.5,1.7,0.8c1.6,0.8,2.5,1.7,2.5,3.3c0,2.3-2.1,3.6-4.3,3.6
		c-1.9,0-3.8-1.1-4.2-3.3c-0.1-0.2-0.1-0.4,0.1-0.5l1.5-0.5c0.1-0.1,0.3-0.1,0.4,0.2c0.1,1.4,1,2.1,2.2,2.1
		C93.6,43,94.4,42.4,94.4,41.5z"/>
	<path d="M105.4,33.2v1.3c0,0.2-0.1,0.3-0.3,0.3h-2.7v6.7c0,1,0.4,1.5,1.1,1.5c0.4,0,0.7-0.1,1-0.3c0.3-0.1,0.4,0,0.5,0.1l0.5,1.2
		c0.1,0.2,0,0.3-0.1,0.4c-0.4,0.2-1.1,0.6-2,0.6c-1.5,0-3.2-0.6-3.2-3.7v-6.5h-1.3c-0.2,0-0.3-0.1-0.3-0.3v-1.3
		c0-0.2,0.2-0.3,0.3-0.3h1.4l0.2-2.4l1.6-0.1c0.2,0,0.4,0.1,0.4,0.5v2h2.7C105.2,32.9,105.4,33,105.4,33.2z"/>
	<path d="M107.1,38.8c0-3.2,2.1-6.1,5.6-6.1c3.2,0,5.3,2.5,5,5.7c-0.1,0.6-0.4,0.8-0.8,0.8h-7l-0.4,0.4c0.2,1.9,1.4,3.4,3.2,3.4
		c1.7,0,2.5-1.1,2.9-2.1c0.1-0.2,0.2-0.4,0.5-0.2l1.3,0.6c0.2,0.1,0.2,0.2,0.1,0.5c-0.5,1.3-2.1,3.2-4.9,3.2
		C109.2,44.9,107.1,42.1,107.1,38.8z M115.3,37.4c0-1.7-1-2.8-2.7-2.8c-1.5,0-2.8,1.2-3.1,2.8H115.3z"/>
	<path d="M126.2,32.7c0.8,0,1.3,0.3,1.5,0.4c0.2,0.2,0.3,0.3,0.2,0.5l-0.6,1.4c-0.1,0.2-0.4,0.2-0.5,0.1c-0.5-0.2-0.8-0.4-1.3-0.4
		c-1.2,0-2.2,1.2-2.2,3.4v6.3c0,0.1-0.1,0.3-0.3,0.3h-1.7c-0.2,0-0.3-0.1-0.3-0.3V33.1c0-0.1,0.1-0.3,0.3-0.3h1.3
		c0.2,0,0.3,0.1,0.3,0.3L123,34h0.7C124.5,33,125.4,32.7,126.2,32.7z"/>
	<path d="M135.2,32.7c0.8,0,1.3,0.3,1.5,0.4c0.2,0.2,0.3,0.3,0.2,0.5l-0.6,1.4c-0.1,0.2-0.4,0.2-0.5,0.1c-0.5-0.2-0.8-0.4-1.3-0.4
		c-1.2,0-2.2,1.2-2.2,3.4v6.3c0,0.1-0.1,0.3-0.3,0.3h-1.7c-0.2,0-0.3-0.1-0.3-0.3V33.1c0-0.1,0.1-0.3,0.3-0.3h1.3
		c0.2,0,0.3,0.1,0.3,0.3l0.1,0.8h0.7C133.5,33,134.4,32.7,135.2,32.7z"/>
	<path d="M137.9,38.8c0-3.2,2.1-6.1,5.6-6.1c3.2,0,5.3,2.5,5,5.7c-0.1,0.6-0.4,0.8-0.8,0.8h-7l-0.4,0.4c0.2,1.9,1.4,3.4,3.2,3.4
		c1.7,0,2.5-1.1,2.9-2.1c0.1-0.2,0.2-0.4,0.5-0.2l1.3,0.6c0.2,0.1,0.2,0.2,0.1,0.5c-0.5,1.3-2.1,3.2-4.9,3.2
		C139.9,44.9,137.9,42.1,137.9,38.8z M146.1,37.4c0-1.7-1-2.8-2.7-2.8c-1.5,0-2.8,1.2-3.1,2.8H146.1z"/>
	<path d="M153.3,30.2h-1.7c-0.3,0-0.4-0.1-0.4-0.4v-2.1c0-0.3,0.1-0.4,0.4-0.4h1.7c0.3,0,0.4,0.1,0.4,0.4v2.1
		C153.7,30.1,153.5,30.2,153.3,30.2z M151.6,32.8h1.7c0.2,0,0.3,0.1,0.3,0.3v11.3c0,0.1-0.1,0.3-0.3,0.3h-1.7
		c-0.2,0-0.3-0.1-0.3-0.3V33.1C151.3,33,151.4,32.8,151.6,32.8z"/>
	<path d="M166.8,36.5l-1.4,0.5c-0.2,0.1-0.3,0-0.4-0.2c-0.4-1.2-1.3-2.3-2.9-2.3c-2,0-3.3,1.8-3.3,4.2c0,2.3,1.2,4.2,3.3,4.2
		c1.8,0,2.6-1.1,3-2.1c0.1-0.2,0.2-0.4,0.5-0.2l1.4,0.6c0.2,0.1,0.2,0.2,0.1,0.5c-0.5,1.4-1.9,3.3-4.9,3.3c-3.6,0-5.6-2.8-5.6-6.1
		c0-3.6,2.4-6.1,5.7-6.1c2.5,0,4.2,1.4,4.9,3.4C167,36.3,167,36.5,166.8,36.5z"/>
	<path d="M174.7,34.6c-1.2,0-2.8,0.7-2.8,2.4v7.4c0,0.1-0.1,0.3-0.3,0.3h-1.7c-0.2,0-0.3-0.1-0.3-0.3V27c0-0.2,0.1-0.3,0.3-0.3h1.7
		c0.2,0,0.3,0.1,0.3,0.3v6.6l0.7,0.2c0.9-0.8,1.8-1.2,2.9-1.2c1.6,0,3.8,1,3.8,4.1v7.6c0,0.1-0.1,0.3-0.3,0.3h-1.7
		c-0.2,0-0.3-0.1-0.3-0.3v-7.7C176.9,35.4,176.1,34.6,174.7,34.6z"/>
</g>
</svg>
